<?xml version="1.0"?>
<svg xmlns="http://www.w3.org/2000/svg" xmlns:xlink="http://www.w3.org/1999/xlink" xmlns:svgjs="http://svgjs.com/svgjs" version="1.1" width="512" height="512" x="0" y="0" viewBox="0 0 512.001 512" style="enable-background:new 0 0 512 512" xml:space="preserve" class=""><g><path xmlns="http://www.w3.org/2000/svg" d="m475.699219 209.71875.0625.449219c-8.480469 1.140625-15.433594 7.621093-17 16.242187l-34.023438 187.160156c-1.726562 9.507813-10.019531 16.417969-19.679687 16.417969h-298.617188c-9.660156 0-17.953125-6.910156-19.679687-16.417969l-34.023438-187.160156c-1.566406-8.621094-8.519531-15.101562-17-16.242187l.0625-.449219c-14.699219-1.921875-26.050781-14.5-26.050781-29.730469 0-16.570312 13.429688-30 30-30h432c16.570312 0 30 13.429688 30 30 0 15.230469-11.351562 27.808594-26.050781 29.730469zm-99.949219 150.269531v-80c0-11.039062-8.960938-20-20-20-11.050781 0-20 8.949219-20 20v80c0 11.050781 8.949219 20 20 20s20-8.949219 20-20zm-100 0v-80c0-11.039062-8.960938-20-20-20-11.050781 0-20 8.949219-20 20v80c0 11.050781 8.949219 20 20 20s20-8.949219 20-20zm-100 0v-80c0-11.039062-8.960938-20-20-20-11.050781 0-20 8.949219-20 20v80c0 11.050781 8.949219 20 20 20s20-8.949219 20-20zm0 0" fill="#1de9b6" data-original="#83c2b1" class=""/><path xmlns="http://www.w3.org/2000/svg" d="m313.230469 20.269531 94.289062 129.71875h-45.757812l-83.492188-110.28125c-5.371093-9.660156-1.890625-21.839843 7.761719-27.199219 9.679688-5.359374 21.859375-1.878906 27.199219 7.761719zm0 0" fill="#424d63" data-original="#424d63" class=""/><path xmlns="http://www.w3.org/2000/svg" d="m225.46875 12.507812c9.652344 5.359376 13.132812 17.539063 7.761719 27.199219l-83.492188 110.28125h-45.757812l94.289062-129.71875c5.359375-9.640625 17.519531-13.121093 27.199219-7.761719zm0 0" fill="#424d63" data-original="#424d63" class=""/><path xmlns="http://www.w3.org/2000/svg" d="m256 219.988281c5.519531 0 10-4.480469 10-10s-4.480469-10-10-10-10 4.480469-10 10 4.480469 10 10 10zm0 0" fill="#000000" data-original="#000000" class=""/><path xmlns="http://www.w3.org/2000/svg" d="m472 139.988281h-59.136719l-90.96875-125.152343c-8.171875-14.003907-26.171875-18.988282-40.46875-11.070313-14.492187 8.050781-19.703125 26.304687-11.648437 40.800781.230468.410156.484375.804688.769531 1.179688l71.351563 94.242187h-171.796876l71.351563-94.242187c.28125-.375.539063-.769532.769531-1.179688 8.035156-14.460937 2.882813-32.730468-11.660156-40.808594-14.265625-7.902343-32.265625-2.921874-40.453125 11.070313l-90.972656 125.160156h-59.136719c-22.054688 0-40 17.945313-40 40 0 17.394531 11.289062 32.539063 27.191406 37.898438 1.695313 1.3125 3.8125 2.101562 6.117188 2.101562.460937 0 .894531.027344 1.347656.089844 4.304688.578125 7.714844 3.84375 8.496094 8.117187l34.019531 187.164063c2.597656 14.269531 15.011719 24.628906 29.519531 24.628906h298.617188c14.507812 0 26.921875-10.359375 29.519531-24.632812l34.019531-187.15625c.78125-4.277344 4.195313-7.542969 8.515625-8.121094.4375-.0625.871094-.089844 1.328125-.089844 2.320313 0 4.453125-.796875 6.148438-2.125 15.914062-5.394531 27.160156-20.511719 27.160156-37.875 0-22.054687-17.945312-40-40-40zm-185.011719-105.660156c-2.285156-4.730469-.511719-10.492187 4.136719-13.070313 4.839844-2.683593 10.941406-.953124 13.609375 3.855469.195313.359375.417969.703125.65625 1.03125l82.746094 113.84375h-21.15625zm-80.378906-8.179687c.238281-.328126.453125-.667969.652344-1.019532 2.675781-4.8125 8.78125-6.546875 13.601562-3.878906 4.65625 2.585938 6.4375 8.339844 4.148438 13.078125l-79.992188 105.660156h-21.15625zm265.390625 173.839843h-175.738281c-4.746094 0-9.058594 3.183594-10.046875 7.820313-1.398438 6.554687 3.535156 12.179687 9.808594 12.179687h154.363281c-.523438 1.488281-.9375 3.035157-1.226563 4.628907l-34.003906 187.164062c-.863281 4.753906-5 8.207031-9.835938 8.207031h-298.628906c-4.839844 0-8.976562-3.453125-9.84375-8.207031l-34.019531-187.164062c-.289063-1.59375-.703125-3.140626-1.226563-4.628907h154.085938c5.011719 0 9.492188-3.554687 10.207031-8.515625.886719-6.183594-3.882812-11.484375-9.894531-11.484375h-176c-12.199219 0-21.699219-10.902343-19.742188-23.222656 1.546876-9.769531 10.292969-16.777344 20.1875-16.777344h431.089844c10.488282 0 19.554688 7.886719 20.398438 18.34375.957031 11.863281-8.480469 21.65625-19.933594 21.65625zm0 0" fill="#000000" data-original="#000000" class=""/><path xmlns="http://www.w3.org/2000/svg" d="m225.75 280.601562v78.78125c0 15.78125 11.949219 29.332032 27.6875 30.519532 17.582031 1.324218 32.3125-12.605469 32.3125-29.914063v-80c0-17.300781-14.628906-31.171875-32.199219-29.921875-15.316406 1.089844-27.800781 15.175782-27.800781 30.535156zm40 79.386719c0 6.011719-5.328125 10.796875-11.507812 9.890625-4.953126-.730468-8.492188-5.207031-8.492188-10.210937v-79.367188c0-5.007812 3.550781-9.488281 8.511719-10.203125 6.179687-.894531 11.488281 3.882813 11.488281 9.890625zm0 0" fill="#000000" data-original="#000000" class=""/><path xmlns="http://www.w3.org/2000/svg" d="m385.75 359.382812v-78.785156c0-15.785156-11.949219-29.335937-27.6875-30.519531-17.582031-1.328125-32.3125 12.605469-32.3125 29.910156v80c0 17.308594 14.730469 31.238281 32.3125 29.914063 15.738281-1.1875 27.6875-14.738282 27.6875-30.519532zm-40-79.394531c0-6.011719 5.328125-10.796875 11.507812-9.890625 4.953126.730469 8.492188 5.207032 8.492188 10.210938v79.355468c0 5.007813-3.539062 9.484376-8.492188 10.210938-6.179687.910156-11.507812-3.878906-11.507812-9.886719zm0 0" fill="#000000" data-original="#000000" class=""/><path xmlns="http://www.w3.org/2000/svg" d="m125.75 280.601562v78.78125c0 15.78125 11.949219 29.332032 27.6875 30.519532 17.582031 1.324218 32.3125-12.605469 32.3125-29.914063v-80c0-17.304687-14.628906-31.171875-32.199219-29.921875-15.320312 1.089844-27.800781 15.175782-27.800781 30.535156zm40 79.386719c0 6.007813-5.328125 10.796875-11.507812 9.890625-4.953126-.730468-8.492188-5.207031-8.492188-10.210937v-79.367188c0-5.011719 3.554688-9.488281 8.511719-10.207031 6.179687-.890625 11.488281 3.882812 11.488281 9.894531zm0 0" fill="#000000" data-original="#000000" class=""/></g></svg>
