<?xml version="1.0"?>
<svg xmlns="http://www.w3.org/2000/svg" xmlns:xlink="http://www.w3.org/1999/xlink" xmlns:svgjs="http://svgjs.com/svgjs" version="1.1" width="512" height="512" x="0" y="0" viewBox="0 0 60 60" style="enable-background:new 0 0 512 512" xml:space="preserve" class=""><g><!-- Generator: Sketch 51.3 (57544) - http://www.bohemiancoding.com/sketch --><title xmlns="http://www.w3.org/2000/svg">010 - Fuel Pump</title><desc xmlns="http://www.w3.org/2000/svg">Created with Sketch.</desc><defs xmlns="http://www.w3.org/2000/svg"/><g xmlns="http://www.w3.org/2000/svg" id="Page-1" stroke="none" stroke-width="1" fill="none" fill-rule="evenodd"><g id="010---Fuel-Pump" transform="translate(-1.000000, 0.000000)" fill-rule="nonzero"><path d="M30.15,12.23 L30.12,17 L29.11,17.16 L24.95,17.81 L19.69,13.42 C19.4213328,13.1991698 19.112253,13.0327422 18.78,12.93 L3.84,8.54 C2.49854082,8.14162332 1.73329146,6.73195344 2.13,5.39 L2.59,3.8 L2.84,2.95 C3.24050596,1.60972856 4.64596776,0.842301795 5.99,1.23 L22.16,5.99 C22.4802481,6.09000852 22.778788,6.24945597 23.04,6.46 L30.15,12.23 Z" id="Shape" fill="#545c60" data-original="#545c60" class=""/><path d="M29.13,14.27 L29.11,17.16 L24.95,17.81 L19.69,13.42 C19.4213328,13.1991698 19.112253,13.0327422 18.78,12.93 L3.84,8.54 C2.49854082,8.14162332 1.73329146,6.73195344 2.13,5.39 L2.59,3.8 C3.23655034,3.22023561 4.13853087,3.0193744 4.97,3.27 L21.14,8.03 C21.4619313,8.12595246 21.7612229,8.2858014 22.02,8.5 L29.13,14.27 Z" id="Shape" fill="#7f8e94" data-original="#7f8e94"/><path d="M47.44,53.97 L37.05,58.56 C36.8808171,58.6369933 36.7071725,58.7037797 36.53,58.76 C37.6926897,59.1245684 38.9487344,59.0498462 40.06,58.55 L48.2,54.95 C47.8604282,54.7003995 47.5972281,54.3610099 47.44,53.97 Z M59.84,50.11 L50.39,27.05 L51.47,25.8 C51.9107955,25.291021 52.1310869,24.6276405 52.082315,23.9560889 C52.0335431,23.2845372 51.719712,22.6599477 51.21,22.22 L40.67,13.08 C39.7705561,12.3057904 38.4554011,12.2560053 37.5,12.96 C37.55,13.01 37.61,13.05 37.66,13.1 L48.2,22.24 C48.7097917,22.6777365 49.0239106,23.3007454 49.072718,23.9709085 C49.1215254,24.6410716 48.9009887,25.303019 48.46,25.81 L47.37,27.07 L56.83,50.13 C57.312074,51.3229094 56.7401657,52.6811915 55.55,53.17 L51.23,54.94 C51.6283461,55.2465623 52.1173506,55.4119091 52.62,55.41 C52.9216576,55.4117449 53.2206975,55.3539758 53.5,55.24 L58.56,53.16 C59.7510603,52.6665595 60.3221927,51.3056581 59.84,50.11 Z" id="Shape" fill="#00bfa5" data-original="#549414" class=""/><path d="M56.83,50.13 L47.37,27.07 L48.46,25.81 C48.9009887,25.303019 49.1215254,24.6410716 49.072718,23.9709085 C49.0239106,23.3007454 48.7097917,22.6777365 48.2,22.24 L37.66,13.1 C37.61,13.05 37.55,13.01 37.5,12.96 C37.3515465,13.073324 37.2142564,13.2005685 37.09,13.34 L34.74,16.06 L33,14.61 L30.15,12.23 L28.82,13.65 L24.95,17.81 L26.08,18.75 L33.03,54.87 C33.3787646,56.7184908 34.7284862,58.21861 36.53,58.76 C36.7071725,58.7037797 36.8808171,58.6369933 37.05,58.56 L47.44,53.97 C47.5972281,54.3610099 47.8604282,54.7003995 48.2,54.95 L50.45,53.96 C50.6084875,54.355963 50.8796937,54.6967091 51.23,54.94 L55.55,53.17 C56.7401657,52.6811915 57.312074,51.3229094 56.83,50.13 Z M39.12,53.51 C38.506137,53.7850244 37.7844732,53.5298019 37.48,52.93 C37.4115842,52.8097502 37.3674172,52.6772494 37.35,52.54 L35.01,37.08 C34.7011367,35.0410513 36.0706099,33.126448 38.1,32.76 L38.56,32.68 L39.6,32.5 C41.4574617,32.1608175 43.2816541,33.2391369 43.88,35.03 L48.68,49.29 L39.12,53.51 Z" id="Shape" fill="#1de9b6" data-original="#60a917" class=""/><path d="M14,27.5 C14.0973232,30.4632953 11.9378086,33.0201606 9,33.42 C8.66921077,33.4722659 8.33489142,33.4990115 8,33.5 C7.50110177,33.5017645 7.00393119,33.4412978 6.52,33.32 L6.51,33.32 C3.8031583,32.7162499 1.90896776,30.2718621 2,27.5 C2,25.08 4.73,20.62 6.5,18.27 C6.78,17.91 7.03,17.6 7.24,17.35 C7.42998824,17.1278336 7.7076758,16.9999231 8,16.9999231 C8.2923242,16.9999231 8.57001176,17.1278336 8.76,17.35 C8.84,17.44 8.92,17.54 9,17.64 C10.71,19.73 14,24.84 14,27.5 Z" id="Shape" fill="#fdd834" data-original="#fdd834" class=""/><path d="M11,27.5 C11.0899703,30.2615148 9.2126121,32.7004043 6.52,33.32 L6.51,33.32 C3.8031583,32.7162499 1.90896776,30.2718621 2,27.5 C2,25.08 4.73,20.62 6.5,18.27 C8.27,20.62 11,25.08 11,27.5 Z" id="Shape" fill="#ffeb3a" data-original="#ffeb3a" class=""/><path d="M38.009,59.984 C35.0973106,59.9798217 32.5968927,57.9129102 32.045,55.054 L25.163,19.285 L24.312,18.574 C24.1010576,18.3978547 23.9719027,18.1426613 23.9548779,17.8683731 C23.9378531,17.5940849 24.0344591,17.3248788 24.222,17.124 L29.422,11.553 C29.784006,11.1646989 30.3863389,11.1269434 30.794,11.467 L34.627,14.661 L36.333,12.688 C36.9471234,11.9778274 37.8182765,11.5407905 38.7547105,11.4730851 C39.6911446,11.4053798 40.6161051,11.7125555 41.326,12.327 L51.872,21.464 C53.3460783,22.7439065 53.5066404,24.9752283 52.231,26.453 L51.547,27.243 L60.765,49.734 C61.4629864,51.4383503 60.6472792,53.38584 58.943,54.084 L53.879,56.16 C52.5380394,56.7092762 50.9958666,56.3312056 50.061,55.224 L40.466,59.463 C39.6922154,59.8058653 38.8553443,59.9833214 38.009,59.984 Z M26.409,17.716 L26.723,17.978 C26.9004202,18.1257337 27.0212563,18.3303071 27.065,18.557 L34.01,54.676 C34.2441441,55.8947865 35.0210722,56.9403799 36.1204507,57.5162541 C37.2198291,58.0921283 38.5217523,58.1354745 39.657,57.634 L50.048,53.043 C50.2951417,52.9338245 50.5759437,52.9292988 50.8264753,53.0304533 C51.0770068,53.1316078 51.275946,53.3298335 51.378,53.58 C51.5118709,53.9078354 51.7705964,54.1689915 52.0971658,54.3059218 C52.4237351,54.442852 52.7913481,54.4443192 53.119,54.31 L58.182,52.233 C58.8637899,51.9538144 59.190172,51.1747955 58.911,50.493 L49.46,27.432 C49.3170881,27.0828593 49.3828279,26.6830069 49.63,26.398 L50.716,25.144 C51.2704501,24.5018639 51.2006729,23.5321402 50.56,22.976 L40.014,13.839 C39.704796,13.5723699 39.3023147,13.4395335 38.8951453,13.4697289 C38.4879758,13.4999243 38.1094917,13.6906767 37.843,14 L35.495,16.716 C35.1380613,17.1305173 34.5142989,17.1813094 34.095,16.83 L30.233,13.612 L26.409,17.716 Z M38.609,54.616 C37.4884622,54.6122836 36.5373401,53.7935211 36.367,52.686 L34.027,37.226 C33.6220203,34.6494761 35.3576217,32.2240843 37.927,31.776 L39.427,31.507 C41.7690874,31.1001523 44.059192,32.4572512 44.827,34.707 L49.627,48.968 C49.7926354,49.4584171 49.5566415,49.9941753 49.083,50.203 L39.52,54.425 C39.2302802,54.5534236 38.9169072,54.6198451 38.6,54.62 L38.609,54.616 Z M40.271,33.433 C40.1073856,33.4329605 39.9440864,33.4473496 39.783,33.476 L38.283,33.745 C36.779484,34.0050956 35.7629684,35.4236758 36,36.931 L38.338,52.39 C38.3485997,52.4751945 38.4001141,52.549853 38.476,52.59 C38.5486451,52.6317729 38.6370942,52.6355049 38.713,52.6 L47.442,48.747 L42.931,35.347 C42.5401697,34.2072498 41.4698928,33.4404723 40.265,33.437 L40.271,33.433 Z" id="Shape" fill="#000000" data-original="#000000" class=""/><path d="M24.952,18.806 C24.7185672,18.8059419 24.4925098,18.7242216 24.313,18.575 L19.046,14.187 C18.8843011,14.0522263 18.6968137,13.9518474 18.495,13.892 L3.562,9.5 C2.66044956,9.23491043 1.90139663,8.62204794 1.4522795,7.79660293 C1.00316237,6.97115791 0.900881907,6.0009515 1.168,5.1 L1.884,2.669 C2.43666847,0.796352453 4.40153979,-0.274907385 6.275,0.275 L22.442,5.035 C22.8925324,5.16679019 23.312114,5.3874615 23.676,5.684 L30.781,11.459 C31.0653139,11.6820252 31.2071924,12.0410863 31.1521196,12.398216 C31.0970467,12.7553456 30.8535902,13.0549844 30.5152971,13.1819975 C30.1770039,13.3090107 29.796503,13.2436385 29.52,13.011 L22.413,7.235 C22.2547466,7.10646926 22.0725618,7.01061831 21.877,6.953 L5.711,2.194 C5.31953818,2.07841815 4.8981867,2.12318485 4.53974992,2.31844005 C4.18131314,2.51369525 3.91519173,2.84342321 3.8,3.235 L3.086,5.668 C2.84651573,6.4822923 3.31196162,7.33665404 4.126,7.577 L19.061,11.977 C19.5246798,12.1129133 19.9553258,12.3430451 20.326,12.653 L25.593,17.041 C25.9163725,17.3106663 26.0361854,17.754002 25.8926694,18.1498465 C25.7491534,18.545691 25.3730578,18.8092317 24.952,18.809 L24.952,18.806 Z" id="Shape" fill="#000000" data-original="#000000" class=""/><path d="M44.377,52.191 C43.9472907,52.190961 43.5656476,51.9164034 43.429,51.509 L39.472,39.751 C39.1479172,38.7672202 38.5388046,37.9019323 37.722,37.265 L35.027,35.136 C34.5934565,34.7933073 34.5198073,34.1640435 34.8625,33.7305 C35.2051927,33.2969565 35.8344565,33.2233073 36.268,33.566 L38.96,35.7 C40.0852735,36.5781885 40.9241267,37.7710308 41.37,39.127 L45.325,50.877 C45.4277188,51.1821793 45.3771979,51.5181496 45.1892698,51.7796234 C45.0013417,52.0410972 44.6990024,52.196079 44.377,52.196 L44.377,52.191 Z" id="Shape" fill="#000000" data-original="#000000" class=""/><path d="M8,34.5 C6.13085085,34.5422554 4.32571664,33.8183348 3.00369091,32.4963091 C1.68166518,31.1742834 0.957744589,29.3691491 1,27.5 C1,24.312 4.874,18.555 6.489,16.691 C6.87915463,16.2708456 7.42663244,16.0321119 8,16.0321119 C8.57336756,16.0321119 9.12084537,16.2708456 9.511,16.691 C11.126,18.555 15,24.312 15,27.5 C15.0422554,29.3691491 14.3183348,31.1742834 12.9963091,32.4963091 C11.6742834,33.8183348 9.86914915,34.5422554 8,34.5 Z M8,18 C6.238,20.034 3,25.185 3,27.5 C2.95374123,28.8397286 3.46565569,30.1385529 4.41355141,31.0864486 C5.36144712,32.0343443 6.6602714,32.5462588 8,32.5 C9.3397286,32.5462588 10.6385529,32.0343443 11.5864486,31.0864486 C12.5343443,30.1385529 13.0462588,28.8397286 13,27.5 C13,25.186 9.763,20.035 8,18 Z" id="Shape" fill="#000000" data-original="#000000" class=""/><path d="M30.416,22.708 C29.9595158,22.707653 29.561208,22.3982238 29.448,21.956 L28.948,20 C28.8586836,19.6538096 28.9608422,19.2862668 29.2159936,19.0358214 C29.4711451,18.7853759 29.8405258,18.6900765 30.1849936,18.7858214 C30.5294615,18.8815663 30.7966836,19.1538096 30.886,19.5 L31.386,21.459 C31.5224055,21.9941626 31.1991586,22.5385785 30.664,22.675 C30.58312,22.6967372 30.4997499,22.7078308 30.416,22.708 Z" id="Shape" fill="#000000" data-original="#000000" class=""/><path d="M32.916,32 C32.4523886,31.9999116 32.0496306,31.6811823 31.943,31.23 L30.526,25.23 C30.3989745,24.6920747 30.7320747,24.1530255 31.27,24.026 C31.8079253,23.8989745 32.3469745,24.2320747 32.474,24.77 L33.891,30.77 C34.0159124,31.3069763 33.6826639,31.8437523 33.146,31.97 C33.0708332,31.9892882 32.9935994,31.9993622 32.916,32 Z" id="Shape" fill="#000000" data-original="#000000" class=""/></g></g></g></svg>
