<?xml version="1.0"?>
<svg xmlns="http://www.w3.org/2000/svg" xmlns:xlink="http://www.w3.org/1999/xlink" xmlns:svgjs="http://svgjs.com/svgjs" version="1.1" width="512" height="512" x="0" y="0" viewBox="0 0 64 64" style="enable-background:new 0 0 512 512" xml:space="preserve" class=""><g><path xmlns="http://www.w3.org/2000/svg" d="m16 40-14 12 7 2 2 7 12-14z" fill="#1de9b6" data-original="#f9ca48" style="" class=""/><path xmlns="http://www.w3.org/2000/svg" d="m60.5 31-3.31 3.992 1.922 4.818-4.386 2.769.332 5.175-5.027 1.278-1.278 5.026-5.175-.331-2.769 4.385-4.817-1.922-3.992 3.31-3.992-3.31-4.818 1.922-2.769-4.386-5.175.332-1.278-5.027-5.026-1.278.331-5.175-4.385-2.769 1.922-4.817-3.31-3.992 3.31-3.992-1.922-4.818 4.386-2.769-.332-5.175 5.027-1.278 1.278-5.026 5.175.331 2.769-4.385 4.817 1.922 3.992-3.31 3.992 3.31 4.818-1.922 2.769 4.386 5.175-.332 1.278 5.027 5.026 1.278-.331 5.175 4.385 2.769-1.922 4.817z" fill="#a7ffeb" data-original="#66becc" style="" class=""/><circle xmlns="http://www.w3.org/2000/svg" cx="32" cy="31" fill="#ffffff" r="20" data-original="#f4e5df" style="" class=""/><circle xmlns="http://www.w3.org/2000/svg" cx="52" cy="51" fill="#1de9b6" r="10" data-original="#ef6a6a" style="" class=""/><path xmlns="http://www.w3.org/2000/svg" d="m25 40c-.512 0-1.023-.195-1.414-.586-.781-.781-.781-2.047 0-2.828l14-14c.781-.781 2.047-.781 2.828 0s.781 2.047 0 2.828l-14 14c-.391.391-.902.586-1.414.586z" fill="#4f4459" data-original="#4f4459" style="" class=""/><circle xmlns="http://www.w3.org/2000/svg" cx="26" cy="25" fill="#4f4459" r="2" data-original="#4f4459" style="" class=""/><circle xmlns="http://www.w3.org/2000/svg" cx="38" cy="37" fill="#4f4459" r="2" data-original="#4f4459" style="" class=""/><g xmlns="http://www.w3.org/2000/svg" fill="#292233"><path d="m57.92 41.743 1.724-1.088c.408-.257.574-.768.396-1.216l-1.7-4.268 2.931-3.534c.308-.37.308-.906 0-1.276l-2.931-3.534 1.7-4.268c.179-.447.013-.958-.395-1.215l-3.878-2.453.291-4.578c.03-.48-.285-.914-.751-1.033l-4.454-1.133-1.134-4.454c-.118-.467-.555-.784-1.032-.751l-4.578.292-2.454-3.879c-.257-.407-.767-.571-1.215-.395l-4.268 1.7-3.533-2.93c-.371-.308-.906-.308-1.277 0l-3.533 2.931-4.268-1.7c-.447-.177-.958-.013-1.215.395l-2.454 3.879-4.578-.292c-.478-.032-.914.285-1.032.751l-1.134 4.454-4.454 1.133c-.466.119-.781.553-.751 1.033l.291 4.578-3.878 2.453c-.407.257-.573.768-.395 1.215l1.7 4.268-2.931 3.534c-.308.37-.308.906 0 1.276l2.931 3.534-1.7 4.268c-.179.447-.013.958.395 1.215l3.878 2.453-.149 2.353-6.735 5.78c-.279.24-.404.613-.325.973.078.359.348.646.702.748l6.466 1.848 1.847 6.466c.102.354.389.624.748.702.069.015.141.022.212.022.288 0 .566-.125.759-.349l5.78-6.735 2.354-.15 2.453 3.878c.257.407.768.57 1.215.395l4.268-1.7 3.533 2.931c.186.154.412.23.639.23s.453-.077.639-.23l3.533-2.931 4.268 1.7c.449.178.959.013 1.216-.396l1.088-1.724c1.956 3.05 5.369 5.081 9.255 5.081 6.065 0 11-4.935 11-11 0-3.885-2.03-7.299-5.08-9.257zm-46.469 17.196-1.489-5.214c-.096-.332-.355-.592-.688-.687l-5.213-1.49 3.972-3.409c.12.277.351.5.66.579l4.454 1.133 1.134 4.454c.079.309.303.538.58.658zm28.956-2.066-4.047-1.612c-.34-.135-.727-.074-1.009.16l-3.351 2.78-3.352-2.78c-.282-.234-.668-.294-1.009-.16l-4.048 1.613-2.327-3.678c-.195-.31-.533-.483-.91-.463l-4.34.28-1.076-4.229c-.09-.355-.367-.632-.722-.723l-4.229-1.076.279-4.34c.023-.365-.154-.714-.464-.91l-3.678-2.326 1.612-4.048c.136-.34.074-.727-.159-1.008l-2.778-3.353 2.78-3.352c.233-.281.295-.668.159-1.008l-1.612-4.048 3.678-2.326c.31-.195.487-.544.464-.909l-.276-4.342 4.226-1.075c.354-.09.632-.368.722-.723l1.076-4.226 4.342.277c.368.025.714-.154.908-.463l2.327-3.678 4.048 1.613c.341.134.727.074 1.009-.16l3.35-2.781 3.352 2.78c.282.234.669.294 1.009.16l4.048-1.613 2.327 3.678c.195.31.544.487.908.463l4.342-.277 1.076 4.226c.09.355.367.632.722.723l4.226 1.075-.276 4.342c-.023.365.154.713.464.909l3.678 2.326-1.612 4.048c-.136.34-.074.727.159 1.008l2.778 3.353-2.78 3.352c-.233.281-.295.668-.159 1.008l1.612 4.047-2.048 1.293c-1.194-.445-2.479-.7-3.826-.7-.361 0-.718.02-1.07.054 1.352-2.816 2.07-5.904 2.07-9.054 0-11.58-9.421-21-21-21s-21 9.42-21 21 9.421 21 21 21c3.15 0 6.238-.718 9.054-2.07-.034.352-.054.709-.054 1.07 0 1.346.255 2.631.7 3.825zm1.225-9.513c-2.913 1.723-6.234 2.64-9.632 2.64-10.477 0-19-8.523-19-19s8.523-19 19-19 19 8.523 19 19c0 3.398-.917 6.718-2.64 9.632-3.138 1.105-5.623 3.59-6.728 6.728zm10.368 12.64c-4.963 0-9-4.038-9-9s4.037-9 9-9 9 4.038 9 9-4.037 9-9 9z" fill="#292233" data-original="#292233" style="" class=""/><path d="m53 44h-2v7c0 .265.105.52.293.707l4 4 1.414-1.414-3.707-3.707z" fill="#292233" data-original="#292233" style="" class=""/><path d="m36.879 21.879-14 14c-.567.566-.879 1.32-.879 2.121s.312 1.555.879 2.121c.566.567 1.32.879 2.121.879s1.555-.312 2.121-.879l14-14c.566-.566.879-1.32.879-2.121s-.313-1.555-.879-2.121c-1.17-1.17-3.072-1.17-4.242 0zm2.828 2.828-14 14c-.379.378-1.035.378-1.414 0-.189-.189-.293-.44-.293-.707s.104-.518.293-.707l14-14c.195-.195.451-.293.707-.293s.512.098.707.293c.189.189.293.44.293.707s-.104.518-.293.707z" fill="#292233" data-original="#292233" style="" class=""/><path d="m26 28c1.654 0 3-1.346 3-3s-1.346-3-3-3-3 1.346-3 3 1.346 3 3 3zm0-4c.552 0 1 .449 1 1s-.448 1-1 1-1-.449-1-1 .448-1 1-1z" fill="#292233" data-original="#292233" style="" class=""/><path d="m38 34c-1.654 0-3 1.346-3 3s1.346 3 3 3 3-1.346 3-3-1.346-3-3-3zm0 4c-.552 0-1-.449-1-1s.448-1 1-1 1 .449 1 1-.448 1-1 1z" fill="#292233" data-original="#292233" style="" class=""/></g></g></svg>
