<?xml version="1.0" standalone="no"?>
<!DOCTYPE svg PUBLIC "-//W3C//DTD SVG 20010904//EN"
 "http://www.w3.org/TR/2001/REC-SVG-20010904/DTD/svg10.dtd">
<svg version="1.0" xmlns="http://www.w3.org/2000/svg"
 width="1536.000000pt" height="1536.000000pt" viewBox="0 0 1536.000000 1536.000000"
 preserveAspectRatio="xMidYMid meet">
<metadata>
Created by potrace 1.14, written by Peter Selinger 2001-2017
</metadata>
<g transform="translate(0.000000,1536.000000) scale(0.100000,-0.100000)"
fill="#000000" stroke="none">
<path d="M2820 11753 c-210 -34 -413 -95 -565 -168 -415 -201 -759 -554 -985
-1010 -113 -227 -148 -364 -136 -531 7 -107 33 -215 74 -313 l29 -69 -65 -64
c-178 -174 -309 -396 -300 -508 l3 -38 132 97 c131 95 324 210 367 218 19 4
28 -7 63 -79 95 -190 118 -366 68 -514 -71 -213 -213 -411 -337 -473 -50 -26
-73 -31 -130 -31 -124 0 -164 42 -156 164 7 95 47 208 140 395 42 86 76 156
75 157 -1 2 -184 -23 -407 -54 l-405 -57 -47 -90 c-104 -199 -189 -414 -223
-567 -12 -55 -16 -110 -13 -195 3 -110 5 -123 36 -185 60 -123 178 -201 361
-241 115 -25 389 -30 511 -9 303 53 589 187 865 406 249 198 436 430 582 721
132 261 169 404 160 615 -5 127 -16 189 -63 339 l-7 24 79 -8 c260 -23 574
-132 793 -275 l64 -41 -25 -27 c-14 -15 -128 -142 -253 -282 -126 -140 -352
-394 -504 -563 l-276 -308 -156 -274 c-86 -151 -154 -276 -151 -279 3 -4 416
-6 917 -6 l912 0 172 304 c94 168 171 307 171 310 0 3 -219 7 -486 8 l-485 3
317 355 c174 195 321 356 325 358 4 2 115 -101 246 -229 131 -128 288 -277
348 -332 61 -54 110 -102 110 -106 0 -3 -108 -152 -240 -329 -132 -177 -241
-327 -243 -332 -2 -6 148 -10 410 -10 l414 0 104 145 c58 80 107 145 111 145
3 0 44 -18 91 -39 155 -72 393 -142 518 -153 37 -3 39 -9 24 -70 l-6 -28 401
0 400 0 14 28 c8 15 31 73 51 129 l38 101 50 22 c84 36 246 128 378 214 155
102 154 101 148 90 -38 -61 -318 -568 -318 -575 0 -12 985 -11 1210 1 822 46
1312 383 1804 1243 51 89 209 371 351 627 142 256 261 468 264 472 10 12 208
-37 307 -75 88 -34 208 -90 231 -109 8 -6 -61 -108 -241 -351 -139 -188 -423
-574 -631 -857 -208 -283 -448 -609 -532 -723 -85 -114 -157 -215 -160 -223
-4 -12 52 -14 408 -14 l414 0 305 430 305 430 284 0 c222 0 282 -3 278 -12 -3
-7 -62 -155 -131 -328 l-127 -315 -53 -42 c-139 -109 -370 -236 -558 -307
l-97 -36 -238 0 -238 0 -53 -74 -52 -74 -63 -11 c-171 -30 -538 -84 -542 -79
-3 3 10 56 30 117 19 62 35 115 35 117 0 2 -169 4 -375 4 l-374 0 -46 -147
c-26 -82 -54 -173 -64 -203 l-18 -55 -131 -46 c-445 -157 -792 -413 -1024
-755 -390 -574 -377 -1209 33 -1648 39 -42 106 -102 148 -133 43 -32 90 -67
105 -78 l27 -20 -50 -155 c-138 -433 -171 -545 -167 -557 8 -20 728 -19 745 1
7 8 44 119 84 247 l72 232 258 1 257 1 0 -196 c0 -108 3 -217 6 -243 l7 -46
378 0 379 0 0 38 c0 20 -7 172 -15 336 -8 165 -12 303 -8 306 10 8 576 221
579 217 1 -1 -4 -33 -12 -72 -23 -117 -29 -338 -10 -424 24 -112 66 -193 139
-266 75 -75 154 -117 286 -153 92 -25 107 -26 361 -27 218 0 280 3 350 18 268
56 447 152 630 336 142 142 264 342 365 596 21 55 41 102 42 104 5 7 112 -28
213 -71 117 -50 192 -87 388 -191 114 -61 151 -86 146 -97 -3 -8 -25 -82 -50
-165 -24 -82 -65 -220 -90 -305 -26 -85 -47 -162 -48 -170 -1 -13 46 -15 359
-18 198 -1 370 0 381 3 16 4 25 17 34 53 6 27 28 104 50 173 43 139 35 133
134 105 292 -79 633 -52 881 72 244 121 393 296 467 547 20 71 23 100 22 250
0 152 -3 181 -27 270 -94 351 -350 635 -758 841 -49 25 -89 46 -89 47 0 3 44
152 155 525 l99 332 273 0 273 0 10 23 c15 34 160 536 160 552 0 13 -117 15
-930 15 l-929 0 -10 -37 c-6 -21 -44 -150 -86 -288 -41 -137 -75 -253 -75
-257 0 -5 124 -8 275 -8 206 0 275 -3 275 -12 0 -6 -30 -111 -66 -232 -122
-407 -115 -387 -133 -382 -381 105 -530 155 -669 225 l-79 40 67 223 c37 123
99 329 139 460 39 130 71 243 71 252 0 15 -35 16 -366 14 l-367 -3 -32 -100
-33 -100 -1 55 c-1 59 18 153 44 218 12 30 21 39 35 35 15 -4 20 5 31 51 l12
55 19 -25 c11 -13 24 -24 29 -24 11 0 744 523 782 559 50 46 80 124 80 205 0
84 -13 117 -85 222 -29 43 -56 83 -60 90 -8 12 315 216 374 236 19 7 70 8 133
5 l102 -7 10 73 c6 39 7 76 3 80 -14 16 -233 31 -275 19 -22 -7 -130 -67 -240
-136 -198 -122 -200 -123 -221 -105 -11 11 -26 19 -33 19 -25 0 -547 -382
-619 -453 -85 -83 -165 -198 -240 -343 -77 -152 -138 -334 -127 -383 3 -17 -2
-45 -13 -72 -98 -228 -72 -571 63 -841 l37 -74 -97 -319 c-53 -176 -143 -473
-200 -660 -57 -187 -121 -398 -143 -470 -33 -110 -42 -130 -58 -128 -82 10
-391 13 -484 5 -63 -5 -117 -8 -118 -7 -2 2 168 521 377 1153 210 632 381
1155 381 1161 0 7 -92 11 -311 13 l-311 3 46 33 c26 19 73 58 105 88 l59 54
241 0 242 0 14 34 c8 19 39 102 69 183 30 81 111 301 181 488 70 187 157 423
195 525 38 102 119 320 180 485 61 165 149 401 195 525 46 124 134 360 195
525 411 1106 480 1294 480 1305 0 7 -166 10 -494 10 l-494 0 -278 -377 c-153
-208 -422 -574 -597 -813 -176 -239 -325 -441 -331 -448 -9 -10 -36 0 -127 47
-130 68 -257 119 -376 152 l-83 22 41 71 c79 139 218 433 257 546 81 237 91
382 34 505 -52 110 -134 173 -291 225 -179 58 -243 63 -937 67 l-630 4 -279
-498 c-153 -274 -360 -642 -458 -818 -374 -666 -497 -888 -643 -1149 l-149
-268 -155 -127 c-245 -201 -537 -417 -657 -484 -6 -4 -4 12 7 41 646 1693
1250 3285 1250 3292 0 6 -183 10 -494 10 l-494 0 -613 -822 c-338 -453 -702
-941 -809 -1084 -107 -144 -358 -481 -558 -748 -199 -267 -366 -486 -370 -486
-12 1 -182 159 -440 410 l-243 237 268 299 c147 164 539 603 871 974 332 371
614 688 627 705 28 37 285 494 285 506 0 5 -388 9 -882 9 l-883 0 -172 -304
c-95 -167 -173 -307 -173 -310 0 -3 202 -7 449 -8 l449 -3 -340 -380 c-187
-209 -482 -539 -655 -732 -174 -194 -318 -353 -320 -353 -3 0 -55 31 -117 69
-342 214 -662 316 -1031 329 l-179 7 -49 95 c-104 206 -126 353 -75 498 45
126 105 218 208 324 117 119 171 148 275 148 77 -1 98 -11 115 -55 22 -57 -25
-193 -143 -420 -30 -58 -52 -107 -49 -109 6 -4 86 5 442 50 69 8 168 20 220
25 147 15 133 6 195 129 69 138 146 332 171 430 14 54 19 111 19 205 0 119 -2
135 -26 185 -52 110 -157 183 -307 215 -69 14 -380 20 -452 8z m7156 -694
c191 -35 182 -132 -54 -560 -56 -102 -108 -193 -115 -203 -7 -9 -59 -29 -122
-46 -176 -46 -378 -120 -507 -186 -28 -14 -48 -22 -46 -17 3 4 132 236 288
516 l282 507 107 0 c59 0 134 -5 167 -11z m-3020 -536 c-7 -16 -54 -122 -104
-238 -50 -115 -170 -394 -267 -620 -98 -225 -198 -458 -222 -517 l-46 -108
-198 0 c-110 0 -199 2 -199 4 0 2 145 213 322 467 177 255 411 593 520 752
110 158 202 287 204 287 2 0 -2 -12 -10 -27z m5173 -539 c-131 -311 -243 -572
-248 -581 -7 -13 -15 -4 -41 48 -18 35 -48 88 -66 117 -19 29 -34 57 -34 62 0
6 116 180 258 388 142 207 282 412 310 455 29 42 54 77 56 77 2 0 -104 -255
-235 -566z m-2570 -136 c-19 -37 -443 -797 -547 -983 -283 -504 -406 -601
-748 -593 l-121 3 154 275 c84 151 235 422 335 602 l182 327 101 64 c187 120
385 224 565 296 90 37 94 37 79 9z m2016 -582 c31 -68 75 -196 75 -217 0 -5
-72 -9 -160 -9 l-160 0 81 118 c45 64 90 132 101 150 11 17 22 32 25 32 2 0
19 -33 38 -74z m1659 -812 c-64 -79 -146 -155 -220 -204 -69 -45 -158 -80
-171 -66 -10 10 30 85 76 142 48 61 163 151 252 199 l64 34 18 -30 19 -29 -38
-46z m-7161 -6 c-9 -24 -49 -121 -88 -217 l-72 -174 -74 2 c-134 3 -259 31
-417 93 -67 26 -102 44 -99 52 3 7 49 74 104 149 l98 137 282 0 283 0 -17 -42z
m7227 -153 c-7 -22 -23 -54 -36 -72 -32 -42 -401 -306 -419 -299 -17 6 -35 67
-35 118 0 33 4 38 28 44 161 37 292 118 415 259 l52 59 3 -34 c2 -19 -2 -53
-8 -75z m-2245 -997 c-2 -7 -164 -535 -360 -1173 -195 -638 -359 -1169 -364
-1180 -6 -14 -39 -31 -107 -54 -55 -19 -209 -74 -343 -123 -135 -48 -246 -86
-249 -83 -6 5 -18 244 -31 605 -6 157 -14 321 -17 365 l-6 80 486 685 486 684
135 47 c74 26 185 72 247 102 124 61 129 63 123 45z m-1387 -400 c-14 -18
-177 -244 -362 -503 -186 -258 -345 -477 -353 -485 -13 -13 -14 -12 -8 8 3 12
42 136 85 275 43 138 106 342 140 452 35 110 66 204 70 208 5 6 363 67 444 76
4 1 -3 -14 -16 -31z m-1350 -570 c-54 -172 -133 -421 -174 -553 -42 -132 -103
-325 -136 -430 -101 -320 -166 -527 -184 -587 -10 -32 -20 -58 -24 -58 -3 0
-36 26 -73 58 -133 114 -234 273 -278 437 -33 122 -30 315 5 450 82 307 300
600 601 808 85 58 326 187 351 187 6 0 -30 -131 -88 -312z m4660 -209 c92 -41
269 -101 441 -149 96 -27 176 -52 179 -55 5 -5 -42 -167 -183 -635 -28 -96
-83 -279 -121 -407 l-68 -232 -41 23 c-151 89 -524 256 -662 297 -24 7 -43 16
-43 20 0 7 345 1160 355 1186 4 13 9 11 143 -48z m1507 -534 c222 -144 369
-328 437 -545 19 -63 23 -96 22 -200 0 -111 -3 -133 -27 -193 -67 -170 -190
-278 -397 -348 -160 -54 -362 -51 -567 7 -29 8 -53 20 -53 28 0 7 27 105 60
217 33 112 81 274 106 359 25 85 61 205 79 265 18 61 59 198 90 305 32 107 59
198 62 202 6 11 91 -34 188 -97z m-5601 -801 l7 -301 -28 -7 c-38 -8 -373 -21
-373 -14 0 8 88 292 154 498 l56 175 82 97 83 97 6 -122 c4 -67 9 -258 13
-423z m2786 7 c0 -17 -70 -219 -105 -301 -43 -103 -118 -207 -182 -254 -93
-67 -258 -87 -347 -40 -99 51 -110 211 -32 490 21 77 22 78 60 86 109 23 606
39 606 19z"/>
</g>
</svg>
